<mxfile host="app.diagrams.net" modified="2024-06-15T21:58:03.109Z" agent="Mozilla/5.0 (Macintosh; Intel Mac OS X 10_15_7) AppleWebKit/537.36 (KHTML, like Gecko) Chrome/125.0.0.0 Safari/537.36" version="24.5.4" etag="X7Dtf4WGGc4Spx-gjw5e" type="github">
  <diagram name="Page-1" id="QslvpS6TsWWy2yYau17q">
    <mxGraphModel>
      <root>
        <mxCell id="0" />
        <mxCell id="1" parent="0" />
      </root>
    </mxGraphModel>
  </diagram>
</mxfile>
